<svg id="Capa_1" enable-background="new 0 0 512 512" height="512" viewBox="0 0 512 512" width="512" xmlns="http://www.w3.org/2000/svg"><g id="XMLID_682_"><path id="XMLID_1539_" d="m472.7 50.517c-7.314 4.073-12.598 7.016-24.704 7.016s-17.39-2.943-24.704-7.016c-8.645-4.815-19.404-10.807-39.3-10.807s-30.654 5.992-39.299 10.807c-7.313 4.073-12.597 7.016-24.702 7.016-12.104 0-17.388-2.943-24.701-7.016-8.645-4.815-19.403-10.807-39.299-10.807-19.895 0-30.653 5.992-39.297 10.807-7.312 4.073-12.595 7.016-24.699 7.016s-17.388-2.943-24.701-7.016c-8.645-4.815-19.403-10.807-39.298-10.807s-30.654 5.992-39.298 10.807c-7.313 4.073-12.597 7.016-24.701 7.016s-17.387-2.943-24.699-7.016c-8.645-4.815-19.403-10.807-39.298-10.807v30c12.104 0 17.387 2.943 24.699 7.016 8.645 4.815 19.403 10.807 39.298 10.807 19.896 0 30.654-5.992 39.298-10.807 7.313-4.073 12.597-7.016 24.701-7.016s17.388 2.943 24.701 7.016c8.645 4.815 19.403 10.807 39.298 10.807s30.653-5.992 39.297-10.807c7.312-4.073 12.596-7.016 24.699-7.016 12.104 0 17.388 2.943 24.701 7.016 8.645 4.815 19.403 10.807 39.298 10.807 19.896 0 30.654-5.992 39.299-10.807 7.313-4.073 12.597-7.016 24.702-7.016s17.39 2.943 24.704 7.016c8.645 4.815 19.404 10.807 39.301 10.807s30.655-5.992 39.3-10.807c7.314-4.073 12.598-7.016 24.704-7.016v-30c-19.896 0-30.655 5.992-39.3 10.807z"/><path id="XMLID_1545_" d="m436.716 415.623h11.784c27.294 0 49.5-22.206 49.5-49.5v-82.5h-30v82.5c0 10.752-8.748 19.5-19.5 19.5h-11.784v-90h-30v56.591h-6.421c-12.294 0-22.295-10.002-22.295-22.296v-12.295h-30v12.295c0 28.836 23.459 52.296 52.295 52.296h6.421v60.075h-50.93c-3.862-14.697-11.902-28.053-23.3-38.401-14.579-13.235-33.302-20.325-52.804-19.942-3.486.068-8.113.564-12.083 1.086-11.732-9.421-26.611-15.076-42.794-15.076-37.756 0-68.472 30.716-68.472 68.472 0 1.291.049 2.578.12 3.861h-25.797c-2.76-9.127-8.04-15.104-11.926-19.48-4.396-4.95-6.216-6.999-6.216-12.56s1.819-7.609 6.215-12.56c5.489-6.181 13.785-15.521 13.785-32.481 0-16.958-8.296-26.298-13.785-32.479-4.396-4.949-6.215-6.997-6.215-12.556v-15h-30v15c0 16.958 8.296 26.298 13.785 32.479 4.396 4.949 6.215 6.997 6.215 12.556 0 5.561-1.819 7.61-6.216 12.56-5.489 6.181-13.784 15.521-13.784 32.48 0 16.569 7.911 25.858 13.395 32.041h-44.43c-2.76-9.127-8.04-15.104-11.926-19.48-4.396-4.95-6.216-6.999-6.216-12.56s1.819-7.609 6.215-12.56c5.489-6.181 13.785-15.521 13.785-32.481 0-16.958-8.296-26.298-13.785-32.479-4.396-4.949-6.215-6.997-6.215-12.556 0-5.56 1.819-7.608 6.215-12.557 5.489-6.18 13.785-15.52 13.785-32.479v-15h-30v15c0 5.559-1.819 7.607-6.215 12.557-5.49 6.18-13.785 15.521-13.785 32.479s8.296 26.298 13.785 32.479c4.396 4.949 6.215 6.997 6.215 12.556 0 5.561-1.82 7.61-6.216 12.56-5.489 6.181-13.784 15.521-13.784 32.48 0 16.569 7.911 25.858 13.395 32.041h-16.732v30h512v-30h-75.284zm-112.65 26.667h-30.908c.072-1.283.12-2.57.12-3.861 0-8.362-1.513-16.375-4.269-23.789 15.381 2.732 28.559 13.287 35.057 27.65zm-137.733-3.861c0-21.214 17.258-38.472 38.472-38.472s38.473 17.258 38.473 38.472c0 1.296-.071 2.583-.198 3.861h-76.549c-.126-1.278-.198-2.565-.198-3.861z"/><path id="XMLID_1549_" d="m398.961 115.541-16.638.873c-11.911.625-51.916 3.806-66.625 18.516-2.505 2.505-4.692 5.288-6.526 8.276-28.132-13.334-50.057-20.082-65.307-20.082-39.353 0-76.569 42.955-80.684 47.852l-8.104 9.648 8.104 9.648c4.114 4.897 41.331 47.852 80.684 47.852 15.252 0 37.176-6.747 65.307-20.082 1.834 2.989 4.021 5.771 6.526 8.276 14.709 14.709 54.714 17.89 66.625 18.515l16.638.873-.873-16.638c-.169-3.216-1.715-29.344-8.224-48.444 6.509-19.1 8.055-45.228 8.224-48.444zm-203.632 65.065c12.282-11.828 32.213-27.483 48.536-27.483 11.377 0 32.52 7.315 58.748 20.24v14.521c-26.227 12.925-47.369 20.24-58.748 20.24-16.24-.001-36.222-15.688-48.536-27.518zm164.765 6.141c2.977 6.656 5.005 17.088 6.29 26.409-14.126-1.989-26.389-5.182-29.473-8.051-2.994-2.994-3.997-6.372-4.299-8.841v-31.28c.301-2.469 1.304-5.846 4.283-8.826 3.095-2.88 15.362-6.076 29.489-8.066-1.285 9.32-3.314 19.753-6.29 26.408l-2.739 6.124z"/><path id="XMLID_1551_" d="m73 160.623c-.364-8.127-6.591-15-15-15-7.846 0-15.363 6.899-15 15 .364 8.127 6.591 15 15 15 7.846 0 15.363-6.899 15-15z"/><path id="XMLID_1552_" d="m169 272.623c.364 8.127 6.591 15 15 15 7.846 0 15.363-6.899 15-15-.364-8.127-6.591-15-15-15-7.846 0-15.363 6.9-15 15z"/><path id="XMLID_1553_" d="m460 190.623c7.846 0 15.363-6.899 15-15-.364-8.127-6.591-15-15-15-7.846 0-15.363 6.899-15 15 .364 8.127 6.591 15 15 15z"/></g></svg>