<svg id="Capa_1" enable-background="new 0 0 512 512" height="512" viewBox="0 0 512 512" width="512" xmlns="http://www.w3.org/2000/svg"><g><path d="m489.32 185.881c-32.332 0-60.98 19.22-74.098 46.191-8.308-9.055-19.014-19.937-31.747-31.243-14.835-33.802-33.489-61.569-55.486-82.526-31.26-29.782-68.271-44.878-110.028-44.878-.144 0-.293 0-.437 0-79.878.202-129.964 55.455-150.959 108.515-4.356 3.555-8.413 7.099-12.148 10.565-34.536 32.046-54.417 72.06-54.417 72.06s19.881 40.014 54.418 72.06c31.985 29.679 86.66 65.057 165.486 65.057 1.01 0 2.023-.029 3.035-.047 16.671 22.989 43.592 36.94 72.3 36.94h80.355v-30.047c-23.821 0-45.019-14.388-54.265-35.541 17.369-9.634 34.74-21.629 51.83-35.816 17.331-14.389 31.598-28.703 42.065-40.111 13.118 26.969 41.766 46.189 74.097 46.189h22.679v-157.368zm-354.462-51.196c23.266-20.631 51.105-31.133 82.743-31.213h.352c46.782 0 80.667 23.495 104.863 53.497-5.813-3.27-11.627-6.279-17.431-9.012-28.897-13.609-57.658-20.509-85.481-20.509-38.347 0-70.962 8.384-98.046 20.4 3.889-4.479 8.204-8.91 13-13.163zm-100.906 129.881c6.109-10.199 19.792-30.639 41.729-50.798 19.832-18.224 41.548-32.051 64.981-41.445 34.541 17.387 56.562 52.791 56.562 91.787 0 39.406-22.438 75.089-57.567 92.29-23.05-9.385-44.428-23.075-63.976-41.039-21.943-20.163-35.626-40.609-41.729-50.795zm226.235 132.427c11.291-2.582 22.667-6.215 34.083-10.918 3.744 8.257 8.706 15.805 14.629 22.452h-13.659c-12.785.001-25.033-4.176-35.053-11.534zm-40.283-25.358c-14.559 0-28.655-1.337-42.274-3.974 22.008-17.668 37.841-41.921 45.132-69.202 9.927 6.636 23.055 11.864 39.803 11.864 15.097 0 30.92-6.512 45.76-18.832 10.336-8.582 24.118-26.927 24.118-26.927s-13.781-18.345-24.118-26.926c-14.84-12.32-30.663-18.832-45.76-18.832-16.634 0-29.696 5.158-39.6 11.729-7.103-27.211-22.702-51.466-44.442-69.241 13.342-2.523 27.141-3.8 41.381-3.8 86.021 0 160.818 79.818 183.844 107.07-23.026 27.253-97.823 107.071-183.844 107.071zm9.608-107.07c5.557-6.621 16.246-15.711 33.052-15.711 11.43 0 23.022 8.269 30.888 15.707-7.833 7.385-19.479 15.716-30.888 15.716-16.806-.001-27.495-9.091-33.052-15.712zm252.441 48.093c-24.311-3.594-44.275-24.528-44.275-48.094s19.964-44.499 44.275-48.094z"/><path d="m104.327 212.7h27.785v30.047h-27.785z"/></g></svg>