<svg id="Capa_1" enable-background="new 0 0 512 512" height="512" viewBox="0 0 512 512" width="512" xmlns="http://www.w3.org/2000/svg"><g><g><g><path d="m289.293 192.946c-24.202 0-45.834 13.459-57.161 32.879-21.578-21.516-59.626-51.468-104.247-51.468-35.881 0-68.787 12.935-95.162 37.408-19.807 18.378-32.723 44.407-32.723 44.407s12.916 26.029 32.723 44.408c26.375 24.472 59.28 37.408 95.162 37.408 44.62 0 82.669-29.951 104.247-51.468 11.327 19.42 32.959 32.878 57.161 32.878h20.816v-126.452zm-255.115 63.227c3.79-5.768 10.321-14.512 19.774-23.126 9.3-8.474 19.401-15.074 30.233-19.801 15.046 8.787 24.494 24.962 24.494 42.677 0 17.924-9.649 34.252-24.988 42.969-10.646-4.712-20.579-11.249-29.738-19.596-9.459-8.618-15.991-17.365-19.775-23.123zm93.707 51.778c-2.803 0-5.563-.123-8.3-.313 12.1-14.117 19.129-32.332 19.129-51.715 0-19.156-6.878-37.187-18.736-51.243 2.609-.173 5.238-.287 7.906-.287 40.349 0 76.465 34.893 91.595 51.799-15.081 16.912-51.076 51.759-91.594 51.759zm152.188-19.829c-14.753-4.01-26.246-17.227-26.246-31.95 0-14.722 11.492-27.939 26.246-31.95z"/></g></g><g><path d="m491.184 18.59c-24.202 0-45.834 13.459-57.161 32.879-21.578-21.517-59.626-51.469-104.247-51.469-35.881 0-68.787 12.935-95.162 37.408-19.807 18.379-32.723 44.408-32.723 44.408s12.916 26.029 32.723 44.408c26.375 24.472 59.28 37.408 95.162 37.408 44.62 0 82.669-29.951 104.247-51.468 11.327 19.42 32.959 32.878 57.161 32.878h20.816v-126.452zm-255.115 63.227c3.79-5.768 10.321-14.512 19.774-23.126 9.3-8.474 19.401-15.074 30.233-19.801 15.046 8.787 24.494 24.962 24.494 42.677 0 17.924-9.649 34.252-24.988 42.969-10.646-4.712-20.579-11.249-29.738-19.596-9.459-8.618-15.991-17.366-19.775-23.123zm93.707 51.778c-2.803 0-5.563-.123-8.3-.313 12.1-14.117 19.129-32.332 19.129-51.715 0-19.156-6.878-37.187-18.736-51.243 2.609-.173 5.238-.287 7.906-.287 40.349 0 76.465 34.893 91.595 51.799-15.081 16.912-51.076 51.759-91.594 51.759zm152.188-19.829c-14.753-4.01-26.246-17.227-26.246-31.95 0-14.722 11.492-27.939 26.246-31.95z"/></g><g><path d="m491.184 366.959c-24.202 0-45.834 13.459-57.161 32.879-21.578-21.516-59.626-51.468-104.247-51.468-35.881 0-68.787 12.935-95.162 37.408-19.807 18.379-32.723 44.408-32.723 44.408s12.916 26.029 32.723 44.408c26.375 24.47 59.28 37.406 95.162 37.406 44.62 0 82.669-29.951 104.247-51.468 11.327 19.42 32.959 32.878 57.161 32.878h20.816v-126.451zm-255.115 63.227c3.79-5.768 10.321-14.512 19.774-23.126 9.3-8.474 19.401-15.074 30.233-19.801 15.046 8.787 24.494 24.962 24.494 42.677 0 17.924-9.649 34.252-24.988 42.969-10.646-4.712-20.579-11.249-29.738-19.596-9.459-8.618-15.991-17.366-19.775-23.123zm93.707 51.778c-2.803 0-5.563-.123-8.3-.313 12.1-14.117 19.129-32.332 19.129-51.715 0-19.156-6.878-37.187-18.736-51.243 2.609-.173 5.238-.287 7.906-.287 40.349 0 76.465 34.893 91.595 51.799-15.081 16.912-51.076 51.759-91.594 51.759zm152.188-19.829c-14.753-4.01-26.246-17.227-26.246-31.95 0-14.722 11.492-27.939 26.246-31.95z"/></g></g></svg>