<svg id="Layer_1" enable-background="new 0 0 512 512" height="512" viewBox="0 0 512 512" width="512" xmlns="http://www.w3.org/2000/svg"><g clip-rule="evenodd" fill-rule="evenodd"><path d="m481.392 0h-450.784c-16.877 0-30.608 13.73-30.608 30.608v353.784c0 16.878 13.731 30.608 30.608 30.608h137.931c-5.582 22.334-11.164 44.667-16.75 67h-14.68c-8.284 0-15 6.716-15 15s6.716 15 15 15h237.782c8.284 0 15-6.716 15-15s-6.716-15-15-15h-14.679c-4.116-16.457-16.747-67-16.747-67h137.928c16.876 0 30.607-13.73 30.607-30.607v-353.785c0-16.878-13.731-30.608-30.608-30.608zm-450.784 30h450.784c.301 0 .608.307.608.608v284.393h-452v-284.393c0-.301.307-.608.608-.608zm298.678 452h-146.572c5.585-22.332 11.166-44.666 16.748-67h113.079c.001 0 13.237 52.967 16.745 67zm152.106-97h-450.784c-.301 0-.608-.307-.608-.607v-39.392h452v39.392c0 .3-.307.607-.608.607z"/><path d="m75.138 95.986h14.256l23.771 90.094c4.591 17.299 19.734 28.921 37.681 28.921h53.182c17.644 0 32.639-11.112 37.314-27.652l16.574-58.638c.009-.032.018-.064.027-.097 2.316-8.409.858-16.777-4.104-23.562-5.142-7.031-13.086-11.063-21.797-11.063h-112.148l-4.441-16.83c-1.737-6.585-7.693-11.173-14.503-11.173h-25.812c-8.284 0-15 6.716-15 15s6.716 15 15 15zm152.937 28.003-15.602 55.199c-.998 3.531-4.313 5.813-8.445 5.813h-53.182c-4.209 0-7.618-2.598-8.68-6.596l-14.357-54.416z"/><path d="m139.001 233.5c-8.262 0-15 6.739-15 15 0 8.262 6.738 15 15 15s15-6.738 15-15c0-8.261-6.738-15-15-15z"/><path d="m215.001 233.5c-8.262 0-15 6.739-15 15 0 8.262 6.738 15 15 15s15-6.738 15-15c0-8.261-6.738-15-15-15z"/><path d="m364 89.917h72.997c8.284 0 15-6.716 15-15s-6.716-15-15-15h-72.997c-8.284 0-15 6.716-15 15s6.716 15 15 15z"/><path d="m364 149.917h72.997c8.284 0 15-6.716 15-15s-6.716-15-15-15h-72.997c-8.284 0-15 6.716-15 15s6.716 15 15 15z"/><path d="m304.001 90c8.262 0 15-6.738 15-15s-6.738-15-15-15-15 6.738-15 15 6.738 15 15 15z"/><path d="m304.001 150c8.262 0 15-6.738 15-15s-6.738-15-15-15-15 6.739-15 15c-.001 8.262 6.738 15 15 15z"/><path d="m364 209.917h72.997c8.284 0 15-6.716 15-15s-6.716-15-15-15h-72.997c-8.284 0-15 6.716-15 15s6.716 15 15 15z"/><path d="m364 269.917h72.997c8.284 0 15-6.716 15-15s-6.716-15-15-15h-72.997c-8.284 0-15 6.716-15 15s6.716 15 15 15z"/><path d="m304.001 210c8.262 0 15-6.738 15-15s-6.738-15-15-15-15 6.739-15 15c-.001 8.262 6.738 15 15 15z"/><path d="m304.001 270c8.262 0 15-6.738 15-15s-6.738-15-15-15-15 6.738-15 15 6.738 15 15 15z"/></g></svg>