<svg id="Capa_1" enable-background="new 0 0 512.007 512.007" height="512" viewBox="0 0 512.007 512.007" width="512" xmlns="http://www.w3.org/2000/svg"><g><path d="m489.362 175.511c-29.766 0-56.403 16.32-70.644 39.973-7.723-12.705-38.315-49.852-41.638-53.158 11.682-27.695 45.409-36.899 56.926-39.28v-31.583h-71.26c-24.645 0-49.006 5.782-70.898 16.742-3.419-1.188-6.867-2.291-10.346-3.304 6.246-11.965 15.173-22.567 26.037-30.693 15.642-11.7 34.271-17.885 53.871-17.885h19.982v-29.999h-110.477c-65.927 0-128.587 28.538-171.914 78.296-33.08 37.99-99.001 149.484-99.001 149.484s67.939 117.407 104.089 156.724c21.468 23.349 46.97 41.745 75.797 54.676 29.849 13.39 61.698 20.179 94.661 20.179h106.844v-30.937h-18.236c-20.441 0-39.827-6.511-56.06-18.828-11.627-8.822-21.054-20.381-27.427-33.408 4.48-1.432 8.928-3.034 13.343-4.788 21.591 10.586 45.526 16.166 69.736 16.166h71.26v-31.583c-11.756-2.43-46.673-11.972-57.634-41.054 1.773-1.78 32.456-37.457 41.194-50.55 13.925 24.706 41.214 41.925 71.795 41.925h22.646v-157.115zm-126.615-54.048h7.512c-6.685 6.088-12.205 12.915-16.492 20.398-7.712-5.938-15.686-11.316-23.902-16.12 10.682-2.82 21.744-4.278 32.882-4.278zm-91.832-65.14h11.125c-13.132 11.616-23.668 26.099-30.68 42.103-10.391-1.47-20.989-2.229-31.776-2.229-31.875 0-62.346 6.851-90.859 20.395 37.205-38.425 88.448-60.269 142.19-60.269zm-236.124 197.94c5.809-9.676 33.625-70.456 86.985-99.711 44.35 11.892 75.946 52.598 75.946 99.064 0 46.786-32.029 87.744-76.862 99.316-26.662-17.029-61.348-47.925-86.069-98.669zm249.056 201.421h-9.299c-28.703 0-56.42-5.905-82.382-17.551-25.092-11.256-47.294-27.273-65.992-47.609-.121-.131-.245-.271-.366-.404 29.246 14.488 60.687 21.821 93.777 21.821 10.212 0 20.337-.812 30.35-2.383 7.494 17.709 19.186 33.636 33.912 46.126zm78.9-71.793c-11.423 0-22.766-1.54-33.702-4.505 8.161-5.114 16.16-10.818 23.976-17.097 4.654 8.533 10.579 15.66 17.106 21.602zm-3.448-68.086c-41.854 43.886-88.861 66.138-139.715 66.138-23.139 0-43.99-4.151-62.668-11.032 15.439-8.15 29.277-19.331 40.525-32.96 19.527-23.66 30.28-53.611 30.28-84.335s-10.753-60.676-30.28-84.335c-11-13.328-24.477-24.315-39.505-32.416 18.397-6.639 38.92-10.668 61.648-10.668 56.101 0 104.659 22.116 144.326 65.734 22.697 24.958 35.975 50.302 41.248 61.552-6.23 11.284-21.7 36.991-45.859 62.322zm122.708-13.718c-24.273-3.588-44.207-24.489-44.207-48.017s19.933-44.429 44.207-48.017z"/><path d="m104.968 202.287h27.743v29.999h-27.743z"/><path d="m307.065 183.807-63.453 70.045 63.453 70.046 11.142-10.92c16.02-15.699 24.842-36.697 24.842-59.127 0-22.429-8.823-43.427-24.842-59.126zm-.295 95.08-22.679-25.035 22.679-25.035c4.104 7.596 6.28 16.139 6.28 25.034s-2.177 17.44-6.28 25.036z"/></g></svg>