<svg id="Capa_1" enable-background="new 0 0 512 512" height="512" viewBox="0 0 512 512" width="512" xmlns="http://www.w3.org/2000/svg"><g><path d="m510.205 192.7c-4.427-13.176-16.248-22.295-30.117-23.23l-139.563-9.411-54.646-128.763c-5.386-12.69-17.713-20.838-31.474-20.838-.115 0-.231 0-.347.001-13.9.138-26.224 8.563-31.4 21.464l-52.077 129.823-139.347 12.184c-13.847 1.21-25.486 10.562-29.65 23.823-4.164 13.262.041 27.588 10.711 36.496l107.376 89.646-31.474 136.293c-3.128 13.544 2.096 27.606 13.496 35.56 14.531 10.14 32.424 4.607 38.02 1.091l118.439-74.419 119.895 72.05c11.914 7.16 26.827 6.435 37.99-1.846 11.164-8.282 16.183-22.342 12.787-35.822l-34.177-135.64 105.574-91.762c10.491-9.117 14.41-23.523 9.984-36.7zm-196.576-19.222-17.32 19.179 22.069 20.323 20.723-22.948 91.171 6.148-159.311 42.368-.33-166.382zm-42.218 189.697-29.983.207v33.846l-99.828 62.992 114.729-175.282 119.521 173.21-104.44-62.517v-32.456zm-30.789-295.448.34 170.96-153.583-39.55 87.104-7.615 20.309 21.458 22.069-20.323-18.508-19.555zm-201.28 150.02 192.641 49.608-105.786 161.618 23.429-101.453 26.359-13.688-13.363-26.862-24.887 12.924zm335.881 80.549-27.524-12.28-12.865 27.103 30.247 13.495 25.046 99.399-109.677-158.943 188.32-50.083z"/></g></svg>